<svg xmlns="http://www.w3.org/2000/svg" viewBox="0 0 800 450" role="img" aria-label="Una montaña bajo la luna llena">
  <defs>
    <linearGradient id="cielo" x1="0" y1="0" x2="0" y2="1">
      <stop offset="0%" stop-color="#241b5c" />
      <stop offset="100%" stop-color="#5b3a8c" />
    </linearGradient>
    <linearGradient id="monte" x1="0" y1="0" x2="0" y2="1">
      <stop offset="0%" stop-color="#3d2f7a" />
      <stop offset="100%" stop-color="#1d1741" />
    </linearGradient>
  </defs>

  <rect width="800" height="450" fill="url(#cielo)" />

  <circle cx="620" cy="110" r="62" fill="#ffe9a8" />
  <circle cx="600" cy="98" r="52" fill="#fff6d8" opacity="0.55" />

  <g fill="#ffffff" opacity="0.75">
    <circle cx="90" cy="70" r="2.5" />
    <circle cx="180" cy="130" r="2" />
    <circle cx="260" cy="60" r="3" />
    <circle cx="360" cy="120" r="2" />
    <circle cx="450" cy="70" r="2.5" />
    <circle cx="720" cy="230" r="2" />
    <circle cx="120" cy="200" r="2" />
  </g>

  <path d="M0 450 L230 190 L340 300 L430 210 L640 450 Z" fill="url(#monte)" />
  <path d="M230 190 L285 245 L175 245 Z" fill="#efeaff" opacity="0.9" />
  <path d="M430 210 L470 250 L390 250 Z" fill="#efeaff" opacity="0.7" />
  <path d="M520 450 L700 300 L800 400 L800 450 Z" fill="#161036" />

  <g fill="#0f0b24">
    <rect x="352" y="392" width="10" height="34" rx="4" />
    <circle cx="357" cy="382" r="14" />
  </g>
</svg>
